<?xml version="1.0" encoding="UTF-8"?>
<svg version="1.1" xmlns="http://www.w3.org/2000/svg" width="200" height="200">
<path d="M0 0 C2.475 0.495 2.475 0.495 5 1 C5.495 2.485 5.495 2.485 6 4 C6.66 4 7.32 4 8 4 C8.66 2.68 9.32 1.36 10 0 C12.475 0.495 12.475 0.495 15 1 C15.495 2.485 15.495 2.485 16 4 C16.66 4 17.32 4 18 4 C18.66 2.68 19.32 1.36 20 0 C22.375 0.1875 22.375 0.1875 25 1 C26.1640625 3.55078125 26.1640625 3.55078125 27 6 C28.19523788 5.98667633 29.39047577 5.97335266 30.62193298 5.95962524 C41.9062899 5.83779969 53.19051275 5.74795808 64.47537899 5.68912697 C70.27659022 5.65786385 76.077269 5.61548167 81.87817383 5.54736328 C87.48031889 5.48199333 93.08195301 5.44625622 98.68445015 5.43073654 C100.81785687 5.41968195 102.95123679 5.39809454 105.08442497 5.36561966 C108.08154788 5.32182252 111.07658129 5.31607568 114.07397461 5.31884766 C115.38597084 5.28649017 115.38597084 5.28649017 116.72447205 5.253479 C123.51296968 5.32105703 127.84134305 7.65424394 133 12 C138.58030105 18.41176376 137.50935487 26.28264233 137.390625 34.33984375 C137.38315516 35.8319879 137.37746574 37.32414193 137.37347412 38.81629944 C137.35827597 42.72424897 137.31904585 46.6315942 137.2746582 50.53930664 C137.23357879 54.53458484 137.21543621 58.52996165 137.1953125 62.52539062 C137.15254466 70.3505345 137.08436564 78.17518225 137 86 C138.98 85.34 140.96 84.68 143 84 C143.66 85.32 144.32 86.64 145 88 C145.99 88 146.98 88 148 88 C150.20420729 93.1863701 150.25809613 96.60815943 149 102 C147.0625 103.25 147.0625 103.25 145 104 C143.73195434 106.0335948 143.73195434 106.0335948 143 108 C140.03 107.01 140.03 107.01 137 106 C137 111.61 137 117.22 137 123 C138.65 123.66 140.3 124.32 142 125 C142 126.98 142 128.96 142 131 C142.94875 130.938125 143.8975 130.87625 144.875 130.8125 C145.90625 130.874375 146.9375 130.93625 148 131 C150 134 150 134 149.4375 137 C149.293125 137.99 149.14875 138.98 149 140 C149.97850195 141.02104551 150.97980427 142.0206121 152 143 C152.5 146 152.5 146 152 149 C150.34151823 150.01351664 148.67334039 151.01120795 147 152 C145.97439486 153.80309114 145.97439486 153.80309114 145.125 155.875 C143.09723261 160.36919466 140.29417444 162.67855535 136 165 C132.63065666 166.12311445 130.06438078 166.14007376 126.51168823 166.16062927 C125.84985602 166.16571709 125.1880238 166.17080491 124.50613606 166.17604691 C122.28387793 166.19176842 120.06165232 166.2002957 117.83935547 166.20874023 C116.24762262 166.21827908 114.65589185 166.22817026 113.06416321 166.23838806 C107.831863 166.2697743 102.59954691 166.29004227 97.3671875 166.30859375 C96.03126989 166.31353973 96.03126989 166.31353973 94.66836405 166.31858563 C86.2663348 166.34937017 77.86430194 166.37607375 69.46223259 166.39300442 C58.72210191 166.41490117 47.98247178 166.45685046 37.24254119 166.52644199 C29.68741602 166.57373065 22.13242565 166.59794458 14.57715714 166.6052013 C10.06679963 166.61015086 5.55700627 166.62516464 1.04681015 166.6649456 C-3.20020284 166.70191098 -7.44633182 166.71018964 -11.69347572 166.69693947 C-13.2474643 166.69699326 -14.80149303 166.70722421 -16.35533333 166.7286911 C-25.28662786 166.84542748 -32.25122189 166.45729291 -39 160 C-43.52054572 154.59739658 -43.41726657 149.90938483 -43.3359375 142.98828125 C-43.01613134 140.14349391 -42.47254875 138.42087015 -41 136 C-40.34 136 -39.68 136 -39 136 C-38.1646875 137.1446875 -38.1646875 137.1446875 -37.3125 138.3125 C-34.41004848 141.68561934 -32.13304168 142.48985015 -28 144 C-28.33 142.35 -28.66 140.7 -29 139 C-27.02 138.01 -27.02 138.01 -25 137 C-25 136.34 -25 135.68 -25 135 C-26.32 134.34 -27.64 133.68 -29 133 C-28.67 131.35 -28.34 129.7 -28 128 C-26.515 127.505 -26.515 127.505 -25 127 C-25 126.34 -25 125.68 -25 125 C-26.32 124.34 -27.64 123.68 -29 123 C-28.67 121.35 -28.34 119.7 -28 118 C-26.515 117.505 -26.515 117.505 -25 117 C-25 116.34 -25 115.68 -25 115 C-26.32 114.34 -27.64 113.68 -29 113 C-28.67 111.35 -28.34 109.7 -28 108 C-26.515 107.505 -26.515 107.505 -25 107 C-25 106.34 -25 105.68 -25 105 C-26.32 104.34 -27.64 103.68 -29 103 C-28.67 101.35 -28.34 99.7 -28 98 C-26.515 97.505 -26.515 97.505 -25 97 C-25 96.34 -25 95.68 -25 95 C-26.32 94.34 -27.64 93.68 -29 93 C-28.67 91.35 -28.34 89.7 -28 88 C-26.515 87.505 -26.515 87.505 -25 87 C-25 86.34 -25 85.68 -25 85 C-26.32 84.34 -27.64 83.68 -29 83 C-28.67 81.35 -28.34 79.7 -28 78 C-26.515 77.505 -26.515 77.505 -25 77 C-25 76.34 -25 75.68 -25 75 C-26.32 74.34 -27.64 73.68 -29 73 C-28.67 71.35 -28.34 69.7 -28 68 C-26.515 67.505 -26.515 67.505 -25 67 C-25 66.34 -25 65.68 -25 65 C-26.32 64.34 -27.64 63.68 -29 63 C-28.67 61.35 -28.34 59.7 -28 58 C-26.515 57.505 -26.515 57.505 -25 57 C-25 56.34 -25 55.68 -25 55 C-26.32 54.34 -27.64 53.68 -29 53 C-28.67 51.35 -28.34 49.7 -28 48 C-26.515 47.505 -26.515 47.505 -25 47 C-25 46.34 -25 45.68 -25 45 C-26.32 44.34 -27.64 43.68 -29 43 C-28.67 41.35 -28.34 39.7 -28 38 C-26.515 37.505 -26.515 37.505 -25 37 C-25 36.34 -25 35.68 -25 35 C-26.32 34.34 -27.64 33.68 -29 33 C-28.50168276 29.31245243 -27.89932357 27.39509338 -25 25 C-25.495 24.608125 -25.99 24.21625 -26.5 23.8125 C-28.45593143 21.44908285 -28.24207973 19.98564997 -28 17 C-26.35 16.34 -24.7 15.68 -23 15 C-23.04125 13.88625 -23.0825 12.7725 -23.125 11.625 C-23 8 -23 8 -21 6 C-17.375 5.875 -17.375 5.875 -14 6 C-13.34 4.35 -12.68 2.7 -12 1 C-8.85375007 0.73781251 -7.38162983 0.75245633 -4.6875 2.5 C-4.130625 2.995 -3.57375 3.49 -3 4 C-2.01 2.68 -1.02 1.36 0 0 Z " fill="#3EC95D" transform="translate(46,17)"/>
<path d="M0 0 C1.30112228 0.00007553 2.60224457 0.00015106 3.9427948 0.00022888 C5.36331216 0.00533554 6.78382912 0.01055154 8.2043457 0.01586914 C9.65737357 0.01773448 11.11040207 0.01915783 12.56343079 0.02015686 C16.38568868 0.02397293 20.2079085 0.03379546 24.03015137 0.04486084 C27.93130987 0.05509452 31.83247452 0.05965868 35.73364258 0.06469727 C43.38665471 0.07541854 51.0396355 0.09248404 58.69262695 0.11352539 C58.69262695 3.41352539 58.69262695 6.71352539 58.69262695 10.11352539 C60.67262695 9.45352539 62.65262695 8.79352539 64.69262695 8.11352539 C65.68262695 10.09352539 65.68262695 10.09352539 66.69262695 12.11352539 C67.68262695 12.11352539 68.67262695 12.11352539 69.69262695 12.11352539 C71.89683424 17.29989549 71.95072309 20.72168482 70.69262695 26.11352539 C68.75512695 27.36352539 68.75512695 27.36352539 66.69262695 28.11352539 C65.42458129 30.1471202 65.42458129 30.1471202 64.69262695 32.11352539 C62.71262695 31.45352539 60.73262695 30.79352539 58.69262695 30.11352539 C58.69262695 35.72352539 58.69262695 41.33352539 58.69262695 47.11352539 C60.34262695 47.77352539 61.99262695 48.43352539 63.69262695 49.11352539 C63.69262695 51.09352539 63.69262695 53.07352539 63.69262695 55.11352539 C64.64137695 55.05165039 65.59012695 54.98977539 66.56762695 54.92602539 C67.59887695 54.98790039 68.63012695 55.04977539 69.69262695 55.11352539 C71.69262695 58.11352539 71.69262695 58.11352539 71.13012695 61.11352539 C70.98575195 62.10352539 70.84137695 63.09352539 70.69262695 64.11352539 C71.6711289 65.1345709 72.67243122 66.13413749 73.69262695 67.11352539 C74.19262695 70.11352539 74.19262695 70.11352539 73.69262695 73.11352539 C72.03414518 74.12704203 70.36596734 75.12473334 68.69262695 76.11352539 C67.66702182 77.91661653 67.66702182 77.91661653 66.81762695 79.98852539 C64.78985956 84.48272005 61.98680139 86.79208074 57.69262695 89.11352539 C54.68896182 90.1147471 52.71523102 90.2346455 49.57861328 90.22705078 C48.53776077 90.22697525 47.49690826 90.22689972 46.42451477 90.2268219 C45.3025621 90.22166061 44.18060944 90.21649933 43.0246582 90.21118164 C41.29973396 90.20905922 41.29973396 90.20905922 39.53996277 90.20689392 C35.86165787 90.20128968 32.1834135 90.18873643 28.50512695 90.17602539 C26.01359137 90.17101094 23.52205484 90.16644794 21.03051758 90.16235352 C14.91786666 90.15131887 8.80525113 90.13457657 2.69262695 90.11352539 C5.69262695 88.11352539 5.69262695 88.11352539 9.06762695 86.55102539 C13.12558243 84.30039462 14.48714686 81.22573525 16.49731445 77.17211914 C18.06274237 74.4761044 19.87598919 73.36536439 22.69262695 72.11352539 C23.02262695 71.78352539 23.35262695 71.45352539 23.69262695 71.11352539 C25.2543544 71.02666936 26.8199204 71.0065032 28.3840332 71.01586914 C29.32827148 71.0190918 30.27250977 71.02231445 31.24536133 71.02563477 C32.23858398 71.03401367 33.23180664 71.04239258 34.25512695 71.05102539 C35.2522168 71.05553711 36.24930664 71.06004883 37.27661133 71.06469727 C39.74867544 71.07652532 42.22062213 71.0930069 44.69262695 71.11352539 C44.69262695 70.45352539 44.69262695 69.79352539 44.69262695 69.11352539 C44.08265869 69.13970947 43.47269043 69.16589355 42.84423828 69.19287109 C40.06479937 69.29718258 37.28577256 69.36195522 34.50512695 69.42602539 C33.54541992 69.46791992 32.58571289 69.50981445 31.59692383 69.55297852 C24.57775088 69.67441749 24.57775088 69.67441749 21.90112305 67.97827148 C20.5168457 66.59399414 20.5168457 66.59399414 18.69262695 64.11352539 C19.35262695 63.12352539 20.01262695 62.13352539 20.69262695 61.11352539 C23.12280273 60.77294922 23.12280273 60.77294922 26.13793945 60.82055664 C27.21430664 60.83022461 28.29067383 60.83989258 29.3996582 60.84985352 C31.09155273 60.88755859 31.09155273 60.88755859 32.81762695 60.92602539 C33.95329102 60.93956055 35.08895508 60.9530957 36.2590332 60.96704102 C39.07070083 61.0024822 41.88143112 61.05189022 44.69262695 61.11352539 C44.69262695 60.45352539 44.69262695 59.79352539 44.69262695 59.11352539 C43.98130615 59.12923584 43.26998535 59.14494629 42.53710938 59.16113281 C39.31819592 59.22344454 36.09940927 59.26250406 32.88012695 59.30102539 C31.76057617 59.32616211 30.64102539 59.35129883 29.48754883 59.37719727 C28.4144043 59.38686523 27.34125977 59.3965332 26.2355957 59.40649414 C25.2458374 59.42220459 24.2560791 59.43791504 23.23632812 59.45410156 C20.26908545 59.05681741 19.57819316 58.34159748 17.69262695 56.11352539 C15.58929804 55.39904896 15.58929804 55.39904896 13.69262695 55.11352539 C13.69262695 53.79352539 13.69262695 52.47352539 13.69262695 51.11352539 C23.92262695 51.11352539 34.15262695 51.11352539 44.69262695 51.11352539 C44.69262695 50.45352539 44.69262695 49.79352539 44.69262695 49.11352539 C42.85317505 49.13709106 42.85317505 49.13709106 40.9765625 49.16113281 C36.43121904 49.2153915 31.88590426 49.24986068 27.34033203 49.27832031 C25.37218412 49.29341621 23.4040699 49.31389487 21.43603516 49.33984375 C18.60872083 49.37619188 15.78185085 49.39324353 12.9543457 49.40649414 C12.07300461 49.421978 11.19166351 49.43746185 10.28361511 49.45341492 C9.46299088 49.45364151 8.64236664 49.4538681 7.796875 49.45410156 C7.07517624 49.4607634 6.35347748 49.46742523 5.60990906 49.47428894 C3.15260193 49.0119121 2.39947374 47.87684043 0.69262695 46.11352539 C-2.43286322 45.86303903 -2.43286322 45.86303903 -5.30737305 46.11352539 C-5.63737305 47.10352539 -5.96737305 48.09352539 -6.30737305 49.11352539 C-7.60674805 49.09290039 -8.90612305 49.07227539 -10.24487305 49.05102539 C-11.59902938 49.02953085 -12.95493387 49.0420434 -14.30737305 49.11352539 C-14.80237305 49.60852539 -14.80237305 49.60852539 -15.30737305 50.11352539 C-17.28737305 50.11352539 -19.26737305 50.11352539 -21.30737305 50.11352539 C-21.30737305 43.51352539 -21.30737305 36.91352539 -21.30737305 30.11352539 C11.36262695 30.60852539 11.36262695 30.60852539 44.69262695 31.11352539 C44.69262695 30.45352539 44.69262695 29.79352539 44.69262695 29.11352539 C31.82262695 29.11352539 18.95262695 29.11352539 5.69262695 29.11352539 C5.69262695 28.45352539 5.69262695 27.79352539 5.69262695 27.11352539 C7.01262695 27.11352539 8.33262695 27.11352539 9.69262695 27.11352539 C9.19762695 24.63852539 9.19762695 24.63852539 8.69262695 22.11352539 C11.75857289 20.58055242 14.96374548 20.99221084 18.32543945 21.01586914 C19.07727509 21.01728409 19.82911072 21.01869904 20.60372925 21.02015686 C23.00840205 21.02576074 25.41298223 21.03831382 27.81762695 21.05102539 C29.44653186 21.05603989 31.07543822 21.06060289 32.7043457 21.06469727 C36.70047522 21.07573142 40.69653537 21.0929986 44.69262695 21.11352539 C44.69262695 20.45352539 44.69262695 19.79352539 44.69262695 19.11352539 C43.163396 19.12138062 43.163396 19.12138062 41.60327148 19.12939453 C37.82756424 19.14746916 34.05186083 19.15896644 30.27612305 19.16845703 C28.64069984 19.1734916 27.00528115 19.18031966 25.36987305 19.18896484 C23.0217172 19.20106874 20.67362076 19.20676239 18.32543945 19.21118164 C17.22536057 19.21892357 17.22536057 19.21892357 16.10305786 19.2268219 C10.92037037 19.2273971 10.92037037 19.2273971 8.69262695 18.11352539 C9.02262695 16.46352539 9.35262695 14.81352539 9.69262695 13.11352539 C8.37262695 13.11352539 7.05262695 13.11352539 5.69262695 13.11352539 C5.69262695 11.79352539 5.69262695 10.47352539 5.69262695 9.11352539 C5.13091797 9.27651123 4.56920898 9.43949707 3.99047852 9.60742188 C1.55709514 10.14337637 -0.58359533 10.22713935 -3.07299805 10.21118164 C-3.96245117 10.20795898 -4.8519043 10.20473633 -5.76831055 10.20141602 C-6.68870117 10.19303711 -7.6090918 10.1846582 -8.55737305 10.17602539 C-9.96116211 10.16925781 -9.96116211 10.16925781 -11.39331055 10.16235352 C-13.69806346 10.15059457 -16.00268531 10.13415965 -18.30737305 10.11352539 C-14.03685832 2.43676677 -8.56370425 -0.01656422 0 0 Z " fill="#F7F84E" transform="translate(124.307373046875,92.886474609375)"/>
<path d="M0 0 C0 9.9 0 19.8 0 30 C-9.28508293 29.5670998 -18.56904996 29.11855229 -27.8520298 28.64264297 C-32.1628333 28.42226447 -36.47374771 28.20868007 -40.78564453 28.01074219 C-44.9492291 27.81935989 -49.11155764 27.60997509 -53.27363205 27.388237 C-54.85927297 27.30690495 -56.44525708 27.23199381 -58.03151321 27.16370392 C-60.25875634 27.06670439 -62.48366949 26.94663973 -64.70947266 26.82128906 C-66.60809555 26.72802338 -66.60809555 26.72802338 -68.54507446 26.63287354 C-72.57363378 25.89492172 -74.81953393 24.54520189 -78 22 C-80.46141247 18.3078813 -80.68650207 15.28645195 -80 11 C-77.82693797 7.42996952 -75.84848005 5.5305187 -72 4 C-69.79852021 3.71545334 -67.58349295 3.53014122 -65.3671875 3.40576172 C-64.70978577 3.36645538 -64.05238403 3.32714905 -63.37506104 3.28665161 C-61.20876611 3.15925222 -59.04200237 3.04436839 -56.875 2.9296875 C-55.36568054 2.84360019 -53.85640347 2.7567668 -52.34716797 2.66921997 C-48.37728302 2.44109413 -44.40687695 2.22373469 -40.4362793 2.00842285 C-37.19708286 1.83102824 -33.9583296 1.6462258 -30.71957397 1.46098137 C-24.02442203 1.0780978 -17.32898263 0.70011855 -10.6328125 0.33544922 C-8.85221436 0.23790848 -8.85221436 0.23790848 -7.03564453 0.13839722 C-4.69240996 0.03156747 -2.34566853 0 0 0 Z " fill="#FAFBFA" transform="translate(183,53)"/>
<path d="M0 0 C1.65 0.66 3.3 1.32 5 2 C5 3.98 5 5.96 5 8 C6.423125 7.9071875 6.423125 7.9071875 7.875 7.8125 C8.90625 7.874375 9.9375 7.93625 11 8 C13 11 13 11 12.4375 14 C12.293125 14.99 12.14875 15.98 12 17 C12.97850195 18.02104551 13.97980427 19.0206121 15 20 C15.5 23 15.5 23 15 26 C13.34151823 27.01351664 11.67334039 28.01120795 10 29 C8.97439486 30.80309114 8.97439486 30.80309114 8.125 32.875 C6.09723261 37.36919466 3.29417444 39.67855535 -1 42 C-4.28519475 43.09506492 -6.73663415 43.09960608 -10.1875 43.0625 C-11.81751953 43.04896484 -11.81751953 43.04896484 -13.48046875 43.03515625 C-14.31191406 43.02355469 -15.14335937 43.01195312 -16 43 C-13 41 -13 41 -9.5625 39.3125 C-4.58897782 36.51555095 -2.77782125 32.33346374 -1 27 C-0.84970012 24.93637009 -0.75155552 22.86876085 -0.68359375 20.80078125 C-0.64169922 19.59228516 -0.59980469 18.38378906 -0.55664062 17.13867188 C-0.51732422 15.87603516 -0.47800781 14.61339844 -0.4375 13.3125 C-0.39431641 12.03826172 -0.35113281 10.76402344 -0.30664062 9.45117188 C-0.2004514 6.30089148 -0.09840467 3.15053161 0 0 Z " fill="#45D85F" transform="translate(183,140)"/>
<path d="M0 0 C2.25 0.875 2.25 0.875 4 2 C4 2.66 4 3.32 4 4 C4.99 4 5.98 4 7 4 C9.20420729 9.1863701 9.25809613 12.60815943 8 18 C6.0625 19.25 6.0625 19.25 4 20 C2.73195434 22.0335948 2.73195434 22.0335948 2 24 C0.02 23.34 -1.96 22.68 -4 22 C-4 15.4 -4 8.8 -4 2 C-2.68 1.34 -1.36 0.68 0 0 Z " fill="#43D85E" transform="translate(187,101)"/>
<path d="M0 0 C3.84748581 1.45349464 5.16086488 3.88705225 7.3828125 7.25 C8.77390212 9.35463795 8.77390212 9.35463795 11.8125 10.0625 C12.080625 9.340625 12.34875 8.61875 12.625 7.875 C13.81876144 5.04767028 15.02734551 2.56171628 16.8125 0.0625 C17.8025 0.0625 18.7925 0.0625 19.8125 0.0625 C19.8125 0.7225 19.8125 1.3825 19.8125 2.0625 C19.379375 2.475 18.94625 2.8875 18.5 3.3125 C16.57727751 5.09557554 16.57727751 5.09557554 15.5 8.1875 C13.8125 11.0625 13.8125 11.0625 10.625 11.9375 C9.2328125 11.999375 9.2328125 11.999375 7.8125 12.0625 C5.5025 9.0925 3.1925 6.1225 0.8125 3.0625 C-3.34728437 4.69499594 -3.34728437 4.69499594 -5.0625 8.1875 C-7.1875 11.0625 -7.1875 11.0625 -10.125 11.875 C-13.61532972 10.94899416 -13.90914187 10.4380349 -15.8125 7.5625 C-16.17601562 6.9128125 -16.53953125 6.263125 -16.9140625 5.59375 C-17.33429688 5.0884375 -17.75453125 4.583125 -18.1875 4.0625 C-22.07345704 3.61677485 -22.07345704 3.61677485 -23.890625 5.59375 C-24.40109375 6.2434375 -24.9115625 6.893125 -25.4375 7.5625 C-25.95828125 8.2121875 -26.4790625 8.861875 -27.015625 9.53125 C-27.40234375 10.0365625 -27.7890625 10.541875 -28.1875 11.0625 C-31.91629222 10.74288924 -33.03857723 10.21886891 -35.6875 7.4375 C-37.9151439 4.78979473 -37.9151439 4.78979473 -40.6875 5 C-43.63622359 6.25320753 -45.71459254 8.04512812 -48.1875 10.0625 C-49.1775 10.0625 -50.1675 10.0625 -51.1875 10.0625 C-51.1875 9.4025 -51.1875 8.7425 -51.1875 8.0625 C-49.53678604 7.03638051 -47.86779994 6.03941857 -46.1875 5.0625 C-45.4759375 4.2271875 -45.4759375 4.2271875 -44.75 3.375 C-43.1875 2.0625 -43.1875 2.0625 -40.25 1.625 C-36.55246016 2.15321998 -35.42634475 3.13477995 -33.1875 6.0625 C-33.1875 6.7225 -33.1875 7.3825 -33.1875 8.0625 C-31.2075 8.0625 -29.2275 8.0625 -27.1875 8.0625 C-26.919375 7.27875 -26.65125 6.495 -26.375 5.6875 C-25.1875 3.0625 -25.1875 3.0625 -22.1875 1.0625 C-19.25 1.0625 -19.25 1.0625 -16.1875 2.0625 C-13.8125 5.125 -13.8125 5.125 -12.1875 8.0625 C-9.81516389 8.02469702 -9.81516389 8.02469702 -7.1875 7.0625 C-4.90510829 4.13928035 -4.90510829 4.13928035 -3.1875 1.0625 C-2.1875 0.0625 -2.1875 0.0625 0 0 Z " fill="#212121" transform="translate(163.1875,61.9375)"/>
<path d="M0 0 C3.12578143 1.6720747 5.39281175 3.7856235 7 7 C7.04022391 9.3329866 7.04320247 11.66706666 7 14 C4.525 13.505 4.525 13.505 2 13 C1.690625 12.030625 1.38125 11.06125 1.0625 10.0625 C0.30476658 7.15934208 0.30476658 7.15934208 -1 6 C-5.01657143 5.77081758 -5.01657143 5.77081758 -9 6 C-11.46278801 8.46278801 -11.99771255 10.70676982 -13 14 C-14.32 14 -15.64 14 -17 14 C-17.59865471 8.01345291 -17.59865471 8.01345291 -15.95703125 5.234375 C-11.27621147 -0.42104362 -7.08675662 -0.99844044 0 0 Z " fill="#030B05" transform="translate(58,41)"/>
<path d="M0 0 C2.75 0.125 2.75 0.125 6 1 C8.375 4.0625 8.375 4.0625 10 7 C12.43717258 6.72965366 12.43717258 6.72965366 15 6 C15.66 5.01 16.32 4.02 17 3 C17.66 3.33 18.32 3.66 19 4 C17.375 7 17.375 7 15 10 C12.0625 10.8125 12.0625 10.8125 9 10 C7.51231104 8.30223392 6.39034292 6.58943173 5.2734375 4.62890625 C3.67879318 2.58913115 2.51005093 2.37597809 0 2 C0 1.34 0 0.68 0 0 Z " fill="#1E1E1E" transform="translate(141,63)"/>
<path d="M0 0 C0.99 0 1.98 0 3 0 C3 0.66 3 1.32 3 2 C2.3503125 2.61875 2.3503125 2.61875 1.6875 3.25 C-0.23179589 5.03873887 -0.23179589 5.03873887 -1.375 8.125 C-3 11 -3 11 -5.6875 11.875 C-6.450625 11.91625 -7.21375 11.9575 -8 12 C-8 11.34 -8 10.68 -8 10 C-7.01 10 -6.02 10 -5 10 C-4.731875 9.278125 -4.46375 8.55625 -4.1875 7.8125 C-2.99373856 4.98517028 -1.78515449 2.49921628 0 0 Z " fill="#1B1B1B" transform="translate(180,62)"/>
<path d="M0 0 C0.66 0 1.32 0 2 0 C0.69687165 3.90938504 -0.74832909 6.41779075 -4 9 C-5.32 9 -6.64 9 -8 9 C-8 8.34 -8 7.68 -8 7 C-7.21625 6.938125 -6.4325 6.87625 -5.625 6.8125 C-4.75875 6.544375 -3.8925 6.27625 -3 6 C-1.68931667 3.55711372 -1.68931667 3.55711372 -1 1 C-0.67 0.67 -0.34 0.34 0 0 Z " fill="#282828" transform="translate(139,64)"/>
<path d="M0 0 C0.66 0.33 1.32 0.66 2 1 C0.3125 4 0.3125 4 -2 7 C-4.75 7.375 -4.75 7.375 -7 7 C-6.21625 6.401875 -5.4325 5.80375 -4.625 5.1875 C-1.85425677 3.08914751 -1.85425677 3.08914751 0 0 Z " fill="#131313" transform="translate(158,66)"/>
<path d="M0 0 C1.32 0 2.64 0 4 0 C3.67 1.65 3.34 3.3 3 5 C2.01 4.67 1.02 4.34 0 4 C0 2.68 0 1.36 0 0 Z " fill="#040E06" transform="translate(141,37)"/>
</svg>
